<svg xmlns="http://www.w3.org/2000/svg">
<symbol width="18" height="18" viewBox="0 0 18 18" id="home">
<path d="M9.81839 0.839174L9.81831 0.839089C9.59903 0.619737 9.31007 0.5 9.00011 0.5C8.69007 0.5 8.40109 0.619665 8.1817 0.83903L7.82816 0.485458L8.1817 0.839033L0.844129 8.1757C0.844129 8.1757 0.843892 8.17594 0.843322 8.17652L0.842217 8.17763L0.83582 8.18416C0.387261 8.63526 0.388147 9.36821 0.837963 9.81798L0.838045 9.81807C1.04394 10.024 1.31442 10.1428 1.60557 10.1553L1.61915 10.1559L1.63268 10.1572L1.63523 10.1573H1.9279H2.4279V10.6573V16.0608C2.4279 16.8538 3.07402 17.5 3.8676 17.5H6.74054C6.7557 17.5 6.76794 17.4877 6.76794 17.4727V13.2363C6.76794 12.4722 7.38877 11.8515 8.15284 11.8515H9.84738C10.6115 11.8515 11.2323 12.4722 11.2323 13.2363V17.4727C11.2323 17.4877 11.2445 17.5 11.2597 17.5H14.1326C14.9262 17.5 15.5723 16.8538 15.5723 16.0608V10.6573V10.1573H16.0723H16.3437C16.6536 10.1573 16.9426 10.0376 17.1622 9.81818C17.6123 9.36759 17.6126 8.63367 17.1629 8.18269L9.81839 0.839174ZM9.81839 0.839174L17.1617 8.18145L17.1617 8.18147L17.1626 8.18233L9.81839 0.839174Z" stroke="white"/>
</symbol>
<symbol width="18" height="22" viewBox="0 0 18 22" id="menu">
<path d="M17.5714 3.66655H15.4286V0.366531C15.4285 0.164039 15.2365 -9.16289e-05 14.9998 3.83786e-08C14.959 3.83786e-08 14.9184 0.00504174 14.8791 0.014896L0.307714 3.68159C0.299143 3.68159 0.292714 3.68892 0.284143 3.69149C0.262339 3.69905 0.241232 3.70812 0.221143 3.71862C0.195214 3.73049 0.170839 3.74465 0.148286 3.76079C0.131678 3.77399 0.116196 3.78819 0.102 3.80332C0.0831964 3.8228 0.0666965 3.84379 0.0527143 3.86602C0.0425893 3.88316 0.0339642 3.90095 0.0269999 3.91919C0.0170892 3.94499 0.0107143 3.97167 0.00814288 3.99875C0.00814288 4.01085 0 4.02112 0 4.03322V21.6333C0 21.8358 0.191893 22 0.428571 22H17.5714C17.8081 22 18 21.8358 18 21.6333V4.03322C18 3.83068 17.8082 3.66655 17.5714 3.66655ZM14.5714 0.856401V3.66655H3.40457L14.5714 0.856401ZM17.1429 21.2667H0.857143V4.39989H17.1429V21.2667Z" fill="#919191"/>
</symbol>
<symbol width="18" height="20" viewBox="0 0 18 20" id="trend">
<path d="M17.9658 11.9058L17.9487 11.7101C17.6738 8.72768 16.0073 6.85802 14.5371 5.2089C13.1758 3.68185 12 2.36315 12 0.417401C12 0.261157 11.895 0.118349 11.7285 0.0467114C11.5615 -0.0253172 11.3608 -0.0135208 11.209 0.078468C9.00098 1.39514 7.1587 3.61431 6.51516 5.73174C6.06839 7.2059 6.00928 8.86314 6.00098 9.95767C3.96192 9.59472 3.50002 7.0529 3.49514 7.02524C3.47217 6.89341 3.37552 6.77865 3.23489 6.716C3.09281 6.65416 2.9258 6.64967 2.78175 6.70908C2.67483 6.75221 0.157219 7.81826 0.0107342 12.0751C0.000468576 12.2167 0 12.3583 0 12.5003C0 16.6355 4.03758 20 9 20C13.9624 20 18 16.6355 18 12.5003C18 12.2928 17.9829 12.0991 17.9658 11.9058ZM9 19.1667C7.34569 19.1667 6 17.9721 6 16.5036C6 16.4536 5.99953 16.4031 6.00389 16.3413C6.02391 15.722 6.16505 15.2993 6.31983 15.0181C6.60989 15.5373 7.12889 16.0146 7.97072 16.0146C8.24709 16.0146 8.47073 15.8282 8.47073 15.5979C8.47073 15.0046 8.48541 14.3203 8.66264 13.7026C8.82037 13.1545 9.1973 12.5723 9.67486 12.1052C9.88725 12.7114 10.3013 13.2021 10.7056 13.6811C11.2843 14.3663 11.8824 15.0746 11.9874 16.2827C11.9937 16.3543 12.0001 16.4263 12.0001 16.5036C12 17.9721 10.6543 19.1667 9 19.1667ZM12.1599 18.6223C12.6789 18.0325 13 17.3035 13 16.5036C13 16.4056 12.9927 16.3144 12.978 16.144C12.8594 14.7837 12.1499 13.9431 11.5235 13.2014C10.9898 12.5699 10.5293 12.0243 10.5293 11.2504C10.5293 11.0921 10.4219 10.9476 10.252 10.8773C10.083 10.8064 9.87895 10.8223 9.72806 10.918C8.76909 11.5218 7.96927 12.5382 7.68998 13.5086C7.54739 14.0062 7.49761 14.5445 7.48003 14.9872C7.13334 14.6764 7.02591 14.1002 7.02497 14.0925C7.00252 13.9586 6.90389 13.8418 6.75984 13.7796C6.61678 13.7178 6.44541 13.7161 6.30136 13.778C6.17536 13.8317 5.06845 14.3606 5.00498 16.3063C5.00058 16.3723 5.00011 16.4382 5.00011 16.5037C5.00011 17.3035 5.3212 18.0326 5.8402 18.6224C2.99658 17.5992 1.00012 15.2411 1.00012 12.5004C1.00012 12.3754 0.999656 12.2509 1.00987 12.1122C1.0958 9.61468 2.05481 8.37613 2.68078 7.82971C3.11728 9.13173 4.26084 10.8337 6.50011 10.8337C6.77648 10.8337 7.00012 10.6474 7.00012 10.4171C7.00012 9.02267 7.03772 7.4114 7.485 5.93603C7.9928 4.26452 9.38391 2.45959 11.0631 1.23772C11.3419 3.02234 12.5084 4.33089 13.7345 5.70572C15.192 7.34058 16.6989 9.03119 16.9513 11.7687L16.9684 11.9681C16.984 12.1415 17.0002 12.3144 17.0002 12.5003C17 15.2411 15.0036 17.5991 12.1599 18.6223Z" fill="#919191"/>
</symbol>
<symbol id="settings" width="18" height="20" viewBox="0 0 18 20">
<path d="M17.9658 11.9058L17.9487 11.7101C17.6738 8.72768 16.0073 6.85802 14.5371 5.2089C13.1758 3.68185 12 2.36315 12 0.417401C12 0.261157 11.895 0.118349 11.7285 0.0467114C11.5615 -0.0253172 11.3608 -0.0135208 11.209 0.078468C9.00098 1.39514 7.1587 3.61431 6.51516 5.73174C6.06839 7.2059 6.00928 8.86314 6.00098 9.95767C3.96192 9.59472 3.50002 7.0529 3.49514 7.02524C3.47217 6.89341 3.37552 6.77865 3.23489 6.716C3.09281 6.65416 2.9258 6.64967 2.78175 6.70908C2.67483 6.75221 0.157219 7.81826 0.0107342 12.0751C0.000468576 12.2167 0 12.3583 0 12.5003C0 16.6355 4.03758 20 9 20C13.9624 20 18 16.6355 18 12.5003C18 12.2928 17.9829 12.0991 17.9658 11.9058ZM9 19.1667C7.34569 19.1667 6 17.9721 6 16.5036C6 16.4536 5.99953 16.4031 6.00389 16.3413C6.02391 15.722 6.16505 15.2993 6.31983 15.0181C6.60989 15.5373 7.12889 16.0146 7.97072 16.0146C8.24709 16.0146 8.47073 15.8282 8.47073 15.5979C8.47073 15.0046 8.48541 14.3203 8.66264 13.7026C8.82037 13.1545 9.1973 12.5723 9.67486 12.1052C9.88725 12.7114 10.3013 13.2021 10.7056 13.6811C11.2843 14.3663 11.8824 15.0746 11.9874 16.2827C11.9937 16.3543 12.0001 16.4263 12.0001 16.5036C12 17.9721 10.6543 19.1667 9 19.1667ZM12.1599 18.6223C12.6789 18.0325 13 17.3035 13 16.5036C13 16.4056 12.9927 16.3144 12.978 16.144C12.8594 14.7837 12.1499 13.9431 11.5235 13.2014C10.9898 12.5699 10.5293 12.0243 10.5293 11.2504C10.5293 11.0921 10.4219 10.9476 10.252 10.8773C10.083 10.8064 9.87895 10.8223 9.72806 10.918C8.76909 11.5218 7.96927 12.5382 7.68998 13.5086C7.54739 14.0062 7.49761 14.5445 7.48003 14.9872C7.13334 14.6764 7.02591 14.1002 7.02497 14.0925C7.00252 13.9586 6.90389 13.8418 6.75984 13.7796C6.61678 13.7178 6.44541 13.7161 6.30136 13.778C6.17536 13.8317 5.06845 14.3606 5.00498 16.3063C5.00058 16.3723 5.00011 16.4382 5.00011 16.5037C5.00011 17.3035 5.3212 18.0326 5.8402 18.6224C2.99658 17.5992 1.00012 15.2411 1.00012 12.5004C1.00012 12.3754 0.999656 12.2509 1.00987 12.1122C1.0958 9.61468 2.05481 8.37613 2.68078 7.82971C3.11728 9.13173 4.26084 10.8337 6.50011 10.8337C6.77648 10.8337 7.00012 10.6474 7.00012 10.4171C7.00012 9.02267 7.03772 7.4114 7.485 5.93603C7.9928 4.26452 9.38391 2.45959 11.0631 1.23772C11.3419 3.02234 12.5084 4.33089 13.7345 5.70572C15.192 7.34058 16.6989 9.03119 16.9513 11.7687L16.9684 11.9681C16.984 12.1415 17.0002 12.3144 17.0002 12.5003C17 15.2411 15.0036 17.5991 12.1599 18.6223Z" fill="#919191"/>
</symbol>
<symbol  width="18" height="18" viewBox="0 0 18 18" id="symbol">
<path d="M17.8293 17.0207L13.182 12.4477C14.399 11.1255 15.1467 9.37682 15.1467 7.45261C15.1461 3.33639 11.7557 0 7.5731 0C3.39049 0 7.62939e-05 3.33639 7.62939e-05 7.45261C7.62939e-05 11.5688 3.39049 14.9052 7.5731 14.9052C9.38028 14.9052 11.0378 14.2802 12.3397 13.241L17.0051 17.832C17.2324 18.056 17.6014 18.056 17.8288 17.832C18.0566 17.6081 18.0566 17.2447 17.8293 17.0207ZM7.5731 13.7586C4.03416 13.7586 1.16529 10.9353 1.16529 7.45261C1.16529 3.96991 4.03416 1.14663 7.5731 1.14663C11.1121 1.14663 13.9809 3.96991 13.9809 7.45261C13.9809 10.9353 11.1121 13.7586 7.5731 13.7586Z" fill="black"/>
</symbol>
<symbol width="18" height="18" viewBox="0 0 18 18" id="market">
<path d="M5.74196 13.7598C4.7041 13.7598 3.86279 14.6011 3.86279 15.639C3.86279 16.6768 4.70414 17.5181 5.74196 17.5181C6.77982 17.5181 7.62113 16.6768 7.62113 15.639C7.62117 14.6011 6.77982 13.7598 5.74196 13.7598ZM5.74196 16.683C5.16538 16.683 4.69799 16.2156 4.69799 15.639C4.69799 15.0624 5.16538 14.595 5.74196 14.595C6.31854 14.595 6.78593 15.0624 6.78593 15.639C6.78597 16.2156 6.31854 16.683 5.74196 16.683Z" fill="white"/>
<path d="M13.6763 13.7598C12.6384 13.7598 11.7971 14.6011 11.7971 15.639C11.7971 16.6768 12.6385 17.5181 13.6763 17.5181C14.7141 17.5181 15.5555 16.6768 15.5555 15.639C15.5555 14.6011 14.7141 13.7598 13.6763 13.7598ZM13.6763 16.683C13.0997 16.683 12.6323 16.2156 12.6323 15.639C12.6323 15.0624 13.0997 14.595 13.6763 14.595C14.2529 14.595 14.7203 15.0624 14.7203 15.639C14.7203 16.2156 14.2529 16.683 13.6763 16.683Z" fill="white"/>
<path d="M17.9149 2.79793C17.8279 2.70293 17.7089 2.64346 17.5808 2.63087L3.98806 2.44296L3.61222 1.29455C3.34745 0.526862 2.62856 0.00859253 1.81654 0H0.417597C0.186958 0 0 0.186957 0 0.417597C0 0.648237 0.186958 0.835194 0.417597 0.835194H1.81654C2.27059 0.845225 2.6704 1.13677 2.81879 1.566L5.47053 9.56297L5.26175 10.0432C5.02887 10.6437 5.09881 11.3196 5.44967 11.8597C5.79717 12.3902 6.38178 12.7176 7.01567 12.7367H15.1379C15.3686 12.7367 15.5555 12.5497 15.5555 12.3191C15.5555 12.0885 15.3686 11.9015 15.1379 11.9015H7.01563C6.65766 11.8925 6.32815 11.7042 6.13867 11.4004C5.95131 11.1002 5.91283 10.7305 6.03428 10.3981L6.20134 10.0223L14.9917 9.10357C15.9573 8.99722 16.7516 8.29495 16.9753 7.34965L17.9776 3.15282C18.0228 3.03196 17.9988 2.89604 17.9149 2.79793ZM16.161 7.16178C16.0254 7.77029 15.5088 8.21914 14.8874 8.26841L6.20134 9.16623L4.2595 3.27815L17.0588 3.46607L16.161 7.16178Z" fill="white"/>
</symbol>
<symbol id="filter">
<rect y="3" width="25" height="2" rx="1" fill="#0B0B0B"/>
<rect y="14" width="25" height="2" rx="1" fill="#0B0B0B"/>
<circle cx="7" cy="4" r="3" fill="white" stroke="black" stroke-width="2"/>
<circle cx="19" cy="15" r="3" fill="white" stroke="black" stroke-width="2"/>
</symbol>
</svg>